<svg width="129" height="64" viewBox="0 0 129 64" fill="none" xmlns="http://www.w3.org/2000/svg">
<path d="M36.5418 12.3266C35.7938 14.1203 34.8531 15.8274 33.7364 17.418C31.8227 20.2582 29.7446 23.1589 29.2164 26.5359C29.0864 27.1642 29.0864 27.8125 29.2164 28.4409C29.5368 29.6878 30.801 30.3372 31.8141 30.8914C32.2505 31.1212 32.67 31.3816 33.0696 31.6707C37.5982 35.013 37.9186 40.7885 36.6804 45.6722C35.3178 51.2025 32.0841 56.0913 27.5279 59.5092C22.1074 63.4403 13.9247 65.5704 7.72487 62.1761C4.52972 60.4443 3.69846 57.2665 3.6898 53.8289C3.6898 45.6116 6.28749 37.5328 10.0801 30.2506C10.5226 29.2766 11.1455 28.3952 11.9158 27.6529C12.3071 27.2875 12.7861 27.0293 13.3064 26.9034C13.8267 26.7775 14.3708 26.7881 14.8858 26.9342C15.4511 27.1923 15.9272 27.6123 16.254 28.1409C16.5807 28.6695 16.7434 29.2832 16.7215 29.9042C16.6688 31.1649 16.3532 32.4007 15.795 33.5323C13.4571 39.1866 10.972 45.0747 11.3963 51.1793C11.3508 52.1709 11.6958 53.1408 12.3574 53.8809C13.0916 54.4715 14.0134 54.7788 14.9551 54.7468C17.1371 54.7468 19.6049 53.6211 21.4839 52.556C23.4105 51.5066 25.0354 49.98 26.2031 48.1227C26.8364 47.0449 27.2403 45.8478 27.3893 44.6066C27.5383 43.3654 27.4292 42.1068 27.069 40.9098C26.3243 38.5285 24.5838 37.4981 22.7395 36.0607C20.8951 34.6234 20.5661 32.6838 20.7566 30.5623C21.246 26.4697 22.4444 22.4936 24.2981 18.8121C25.0081 17.2795 25.8913 15.7988 26.4628 14.2142C26.8287 13.4206 26.9171 12.5271 26.7139 11.6772C26.5765 11.2882 26.3047 10.9612 25.9475 10.7548C25.5904 10.5484 25.1713 10.4763 24.7657 10.5515C23.1724 10.6987 22.0035 11.7551 20.8172 12.7249C17.7346 15.2187 14.2364 18.0934 11.3616 20.821C10.2273 21.8947 9.46532 22.7 8.35697 23.7997C8.11452 24.0421 6.23553 26.3974 6.32212 25.0552C6.48664 22.9338 6.75507 20.8903 6.85898 18.7342L0.970892 18.4398C0.870137 18.4387 0.772338 18.4056 0.691561 18.3454C0.610783 18.2851 0.551191 18.2008 0.521356 18.1046C0.491521 18.0084 0.49298 17.9051 0.525523 17.8098C0.558067 17.7144 0.620018 17.6318 0.702465 17.5739L1.93204 16.6474L4.29593 14.8463C5.88052 13.6168 7.44778 12.4651 9.06701 11.2962C12.2015 8.98711 15.3996 6.79351 18.6611 4.71536C21.3541 2.98357 24.3068 1.25178 27.5192 0.758222C30.5066 0.290639 33.8576 1.08726 35.7366 3.45115C37.9446 6.24799 37.7021 9.38253 36.5418 12.3266Z" fill="black"/>
<path d="M49.0107 29.9389V13.4869H56.544C59.7565 13.4869 61.6874 14.8117 61.6874 17.5826C61.7167 18.0242 61.6583 18.4673 61.5154 18.8862C61.3725 19.3051 61.1481 19.6915 60.8551 20.0232C60.562 20.3549 60.2062 20.6253 59.808 20.8187C59.4099 21.0121 58.9774 21.1247 58.5356 21.15V21.3405C59.0523 21.3606 59.56 21.4826 60.0294 21.6996C60.4989 21.9166 60.9208 22.2242 61.2708 22.6049C61.6209 22.9855 61.8922 23.4316 62.0692 23.9176C62.2463 24.4035 62.3254 24.9196 62.3022 25.4362C62.3022 28.2244 60.3193 29.9389 56.8644 29.9389H49.0107ZM51.6084 20.3361H56.2583C58.2412 20.3361 59.0291 19.7992 59.0291 18.1367C59.0291 16.4742 58.3191 15.9114 56.3362 15.9114H51.669L51.6084 20.3361ZM51.6084 27.5663H56.8038C58.7867 27.5663 59.6439 27.0035 59.6439 25.0639C59.6439 23.1243 58.778 22.5441 56.8038 22.5441H51.669L51.6084 27.5663Z" fill="black"/>
<path d="M63.6704 23.843C63.6704 20.0677 65.991 17.522 69.7316 17.522C73.4723 17.522 75.7063 20.0677 75.7063 23.843C75.7063 27.6183 73.455 30.1813 69.7316 30.1813C66.0083 30.1813 63.6704 27.6356 63.6704 23.843ZM73.1952 23.843C73.1952 21.1241 72.3293 19.8772 69.7316 19.8772C67.1339 19.8772 66.268 21.1241 66.268 23.843C66.268 26.5619 67.1339 27.8348 69.7316 27.8348C72.3293 27.8348 73.1692 26.6052 73.1692 23.843H73.1952Z" fill="black"/>
<path d="M77.3254 23.843C77.3254 20.0677 79.6547 17.522 83.3867 17.522C87.1187 17.522 89.3614 20.0677 89.3614 23.843C89.3614 27.6183 87.1014 30.1813 83.3867 30.1813C79.672 30.1813 77.3254 27.6356 77.3254 23.843ZM86.8503 23.843C86.8503 21.1241 85.9844 19.8772 83.3867 19.8772C80.789 19.8772 79.9231 21.1241 79.9231 23.843C79.9231 26.5619 80.789 27.8348 83.3867 27.8348C85.9844 27.8348 86.8243 26.6052 86.8243 23.843H86.8503Z" fill="black"/>
<path d="M91.3877 29.9389V13.4869H93.9853V22.5961H96.3839L99.6396 17.7731H102.748L98.514 23.5226L102.696 29.9389H99.605L96.4272 24.9686H94.0373V29.9389H91.3877Z" fill="black"/>
<path d="M52.8207 50.7203L49.0107 34.3116H52.0413L54.0762 43.5421L54.7862 48.0707H54.9854L56.0331 43.5421L58.7693 34.3116H62.4667L65.1856 43.5421L66.2334 48.0707H66.4325L67.1426 43.5421L69.2034 34.3116H72.1821L68.3635 50.7636H64.5189L61.9991 42.3731L60.7003 37.273H60.4838L59.159 42.3731L56.6652 50.7203H52.8207Z" fill="black"/>
<path d="M83.5686 44.6245C83.5686 40.8492 81.3173 38.3034 77.6979 38.3034C74.4161 38.3034 72.1128 40.2603 72.1128 43.594C72.1146 44.1514 72.1638 44.7076 72.26 45.2566H81.1008C80.9969 47.4906 80.2349 48.6162 77.6372 48.6162C75.611 48.6162 74.8231 47.9235 74.8231 46.8238V46.6333H72.2254V46.8498C72.2254 49.3436 74.4075 50.9628 77.6892 50.9628C81.6896 50.9628 83.5686 48.4171 83.5686 44.6245ZM81.0489 43.4988H74.6326C74.5373 41.412 75.663 40.5374 77.7498 40.5374C80.0444 40.5374 80.9276 41.6111 81.0489 43.4988Z" fill="black"/>
<path d="M85.3091 44.6245C85.3091 40.8492 87.5604 38.3034 91.1885 38.3034C94.4702 38.3034 96.7735 40.2603 96.7735 43.594C96.7718 44.1514 96.7225 44.7076 96.6263 45.2566H87.7855C87.8808 47.4906 88.6514 48.6162 91.2491 48.6162C93.2753 48.6162 94.0633 47.9235 94.0633 46.8238V46.6333H96.6609V46.8498C96.6609 49.3436 94.4875 50.9628 91.2058 50.9628C87.1967 50.9628 85.3091 48.4171 85.3091 44.6245ZM87.8115 43.4988H94.2451C94.349 41.412 93.2233 40.5374 91.1365 40.5374C88.8419 40.5374 87.976 41.6111 87.8115 43.4988Z" fill="black"/>
<path d="M98.8776 50.7203V38.5545H101.302V40.8232H101.397C101.763 40.0225 102.365 39.3524 103.121 38.9022C103.878 38.452 104.753 38.2431 105.632 38.3034C108.792 38.3034 110.212 40.3123 110.212 43.0832V50.7203H107.571V43.6633C107.571 41.4899 106.878 40.5807 104.653 40.5807C102.428 40.5807 101.519 41.4466 101.519 43.6893V50.7203H98.8776Z" fill="black"/>
<path d="M112.585 36.9959V34.303H115.182V36.9959H112.585ZM112.585 50.7117V38.4766H115.234V50.7204L112.585 50.7117Z" fill="black"/>
<path d="M117.044 44.6245C117.044 40.8492 119.295 38.3034 122.924 38.3034C126.197 38.3034 128.5 40.2603 128.5 43.594C128.503 44.1516 128.453 44.7082 128.353 45.2566H119.521C119.616 47.4906 120.386 48.6162 122.984 48.6162C125.019 48.6162 125.798 47.9235 125.798 46.8238V46.6333H128.396V46.8498C128.396 49.3436 126.214 50.9628 122.932 50.9628C118.932 50.9628 117.044 48.4171 117.044 44.6245ZM119.538 43.4988H125.98C126.075 41.412 124.95 40.5374 122.872 40.5374C120.568 40.5374 119.685 41.6111 119.538 43.4988Z" fill="black"/>
<path d="M87.8115 43.5248H81.0662V45.2479H87.8115V43.5248Z" fill="black"/>
</svg>
