<svg width="146" height="43" viewBox="0 0 146 43" fill="none" xmlns="http://www.w3.org/2000/svg">
<path d="M25.7279 6.66992C24.3582 6.67623 23.0288 7.13297 21.9444 7.9697C20.8601 8.80643 20.0812 9.97667 19.7279 11.2999C19.5861 11.8282 19.5155 12.373 19.5179 12.9199C19.5169 12.3725 19.443 11.8277 19.2979 11.2999C18.9445 9.97667 18.1656 8.80643 17.0813 7.9697C15.9969 7.13297 14.6675 6.67623 13.2979 6.66992C14.7294 6.67194 16.1183 6.18244 17.2323 5.28326C18.3463 4.38407 19.1178 3.12972 19.4179 1.72992C19.4865 1.29686 19.51 0.857834 19.4879 0.419922C19.4855 0.85992 19.5291 1.29896 19.6179 1.72992C19.9176 3.12804 20.6876 4.38111 21.7995 5.28011C22.9114 6.1791 24.298 6.66965 25.7279 6.66992Z" fill="#FFDA00"/>
<path d="M35.5677 33.0299C37.2017 35.8568 38.0606 39.0648 38.0577 42.3299H31.5277C31.5102 39.4987 30.4922 36.7649 28.6537 34.6117C26.8151 32.4586 24.2745 31.0249 21.481 30.5641C18.6875 30.1033 15.821 30.6451 13.3883 32.0937C10.9557 33.5422 9.11357 35.8043 8.18771 38.4799C6.25 36.994 4.6226 35.1424 3.39771 33.0299C4.22235 31.61 5.23109 30.3054 6.3977 29.1499C6.95878 28.5904 7.55679 28.0693 8.18771 27.5899C11.1137 25.3346 14.65 24.0107 18.3377 23.7899C18.7177 23.7899 19.0977 23.7899 19.4877 23.7899C19.8777 23.7899 20.2477 23.7899 20.6277 23.7899C24.3154 24.0107 27.8517 25.3346 30.7777 27.5899C31.1746 26.4437 31.3905 25.2426 31.4177 24.0299C31.4177 23.9299 31.4177 23.8299 31.4177 23.7299C31.4181 22.0908 31.0799 20.4693 30.4243 18.9671C29.7687 17.4648 28.8098 16.1142 27.6077 14.9999C26.2109 13.6832 24.5106 12.7317 22.6577 12.2299C24.5528 10.149 27.119 8.8004 29.9077 8.41992L30.2077 8.62992C32.6238 10.3466 34.5936 12.6169 35.9524 15.2509C37.3111 17.885 38.0193 20.8061 38.0177 23.7699C38.0165 24.4381 37.9798 25.1057 37.9077 25.7699C37.7764 27.045 37.5082 28.3023 37.1077 29.5199C36.7189 30.7407 36.2027 31.9172 35.5677 33.0299Z" fill="url(#paint0_linear_108_1032)"/>
<path d="M16.3077 12.2199C13.7926 12.9228 11.5754 14.4271 9.99263 16.5043C8.40988 18.5815 7.54798 21.1184 7.53772 23.7299C7.53772 23.8299 7.53772 23.9299 7.53772 24.0299C5.94576 25.0699 4.49679 26.3138 3.22772 27.7299C2.72485 28.286 2.25409 28.8703 1.81772 29.4799C1.41829 28.262 1.15011 27.0048 1.01772 25.7299C0.945631 25.0657 0.908913 24.3981 0.907718 23.7299C0.90609 20.7661 1.61429 17.845 2.97305 15.2109C4.33182 12.5769 6.30164 10.3066 8.71772 8.58992L9.03772 8.41992C11.8304 8.799 14.4023 10.1434 16.3077 12.2199Z" fill="url(#paint1_linear_108_1032)"/>
<path d="M65.2077 38.8808C64.7087 37.6056 63.9951 36.4252 63.0977 35.3908C62.7515 34.9911 62.3736 34.6199 61.9677 34.2808C62.3937 33.9959 62.7833 33.6601 63.1277 33.2808C63.7149 32.6504 64.1704 31.9093 64.4677 31.1008C64.7793 30.2694 64.9385 29.3886 64.9377 28.5008C64.9367 27.6136 64.767 26.7346 64.4377 25.9108C64.1088 25.0691 63.6312 24.2935 63.0277 23.6208C62.4288 22.9606 61.7092 22.421 60.9077 22.0308C60.0407 21.6299 59.0927 21.4348 58.1377 21.4608H48.6877V42.7908H52.8377V35.6308H55.5477C56.0783 35.6278 56.6067 35.6984 57.1177 35.8408C57.4647 35.9326 57.8002 36.0634 58.1177 36.2308C58.8918 36.6139 59.574 37.1597 60.1177 37.8308C60.6593 38.5121 61.0758 39.284 61.3477 40.1108C61.6386 40.9744 61.7872 41.8795 61.7877 42.7908H65.9677C65.9545 41.4521 65.6969 40.127 65.2077 38.8808ZM60.3877 30.2708C60.1649 30.765 59.821 31.1949 59.3877 31.5208C58.9945 31.8297 58.5078 31.9955 58.0077 31.9908H52.8377V25.0708H57.8377C58.3368 25.0713 58.8231 25.2288 59.2277 25.5208C59.6766 25.8363 60.0435 26.2546 60.2977 26.7408C60.5874 27.2921 60.7319 27.9081 60.7177 28.5308C60.7358 29.1279 60.6232 29.7217 60.3877 30.2708Z" fill="white"/>
<path d="M81.3478 30.5809C80.6943 29.3589 79.7191 28.3387 78.5278 27.6309C77.1669 26.8957 75.6445 26.5107 74.0978 26.5107C72.551 26.5107 71.0286 26.8957 69.6678 27.6309C68.4461 28.3451 67.4459 29.3834 66.7778 30.6309C66.1039 31.8841 65.7597 33.2881 65.7778 34.7109C65.768 36.8046 66.5794 38.8187 68.0378 40.3209C68.7798 41.0802 69.6722 41.6762 70.6578 42.0709C71.7467 42.5118 72.9131 42.7295 74.0878 42.7109C75.1733 42.7255 76.253 42.5495 77.2778 42.1909C78.1976 41.8637 79.0486 41.3687 79.7878 40.7309L78.6578 37.8709C78.0937 38.4894 77.3863 38.9599 76.5978 39.2409C75.8441 39.5886 75.0275 39.7792 74.1978 39.8009C73.505 39.8101 72.8198 39.6559 72.1978 39.3509C71.5881 39.0407 71.0683 38.5793 70.6878 38.0109C70.2883 37.3924 70.0479 36.6847 69.9878 35.9509H82.2378C82.2378 35.7909 82.2378 35.5909 82.2378 35.3409C82.2378 35.0909 82.2378 34.8509 82.2378 34.6109C82.286 33.214 81.9798 31.8276 81.3478 30.5809ZM69.9578 33.3109C70.0235 32.6014 70.2529 31.9168 70.6278 31.3109C70.9872 30.7439 71.4866 30.279 72.0778 29.9609C72.6903 29.6258 73.3798 29.4569 74.0778 29.4709C74.775 29.464 75.4627 29.6325 76.0778 29.9609C76.6719 30.2787 77.1745 30.7435 77.5378 31.3109C77.9127 31.9168 78.142 32.6014 78.2078 33.3109H69.9578Z" fill="white"/>
<path d="M87.5776 42.6708L81.7676 27.0508H85.9076L89.9076 39.0508L93.9076 27.0508H97.7276L91.9676 42.6708H87.5776Z" fill="white"/>
<path d="M98.9077 25.4609V21.4609H102.908V25.4609H98.9077ZM98.9077 42.6809V26.9009H102.908V42.6709L98.9077 42.6809Z" fill="white"/>
<path d="M111.368 42.6709C110.056 42.6763 108.753 42.4529 107.518 42.0109C106.331 41.5838 105.252 40.901 104.358 40.0109L105.798 37.4609C106.638 38.1611 107.578 38.7308 108.588 39.1509C109.422 39.4954 110.315 39.6786 111.218 39.6909C111.869 39.7192 112.517 39.5779 113.098 39.2809C113.319 39.1656 113.504 38.9898 113.629 38.7738C113.755 38.5578 113.817 38.3106 113.808 38.0609C113.815 37.8955 113.784 37.7307 113.716 37.5796C113.648 37.4285 113.546 37.2954 113.418 37.1909C113.076 36.9427 112.694 36.7566 112.288 36.6409C111.798 36.4809 111.198 36.3009 110.498 36.1009C109.503 35.795 108.527 35.4276 107.578 35.0009C106.881 34.7168 106.273 34.2505 105.818 33.6509C105.404 33.0347 105.197 32.3026 105.228 31.5609C105.204 30.6117 105.485 29.6798 106.028 28.9009C106.598 28.1278 107.369 27.526 108.258 27.1609C109.32 26.7279 110.46 26.5169 111.608 26.5409C112.693 26.5329 113.771 26.7087 114.798 27.0609C115.82 27.4292 116.754 28.0084 117.538 28.7609L115.908 31.2909C115.214 30.7323 114.447 30.2714 113.628 29.9209C112.929 29.6383 112.182 29.4923 111.428 29.4909C111.026 29.4883 110.626 29.5387 110.238 29.6409C109.901 29.7204 109.591 29.8858 109.338 30.1209C109.213 30.254 109.117 30.4117 109.057 30.5839C108.997 30.7561 108.973 30.939 108.988 31.1209C108.98 31.28 109.004 31.4391 109.059 31.5886C109.114 31.7382 109.198 31.875 109.308 31.9909C109.597 32.2442 109.939 32.4318 110.308 32.5409C110.738 32.7009 111.308 32.8709 111.888 33.0709C112.98 33.368 114.053 33.7354 115.098 34.1709C115.869 34.4572 116.556 34.9316 117.098 35.5509C117.571 36.1947 117.804 36.9834 117.758 37.7809C117.788 38.4789 117.647 39.1737 117.348 39.8047C117.048 40.4357 116.598 40.9837 116.038 41.4009C114.666 42.3321 113.022 42.7791 111.368 42.6709Z" fill="white"/>
<path d="M118.988 25.4609V21.4609H122.988V25.4609H118.988ZM118.988 42.6809V26.9009H122.988V42.6709L118.988 42.6809Z" fill="white"/>
<path d="M143.168 38.241C143.642 37.5685 144.038 36.8437 144.348 36.081C145.34 33.5515 145.34 30.7404 144.348 28.211C143.861 26.9566 143.161 25.7961 142.278 24.781C141.388 23.7556 140.3 22.922 139.078 22.331C137.782 21.7142 136.362 21.4029 134.928 21.421C133.505 21.4002 132.094 21.6938 130.798 22.281C129.575 22.851 128.475 23.6524 127.558 24.641C126.638 25.6342 125.906 26.7862 125.398 28.041C124.874 29.3095 124.606 30.6687 124.608 32.041C124.614 33.3827 124.868 34.7118 125.358 35.961C125.517 36.378 125.708 36.7825 125.928 37.171C126.331 37.9653 126.838 38.7019 127.438 39.361C127.801 39.769 128.207 40.1377 128.648 40.461C129.261 40.9715 129.932 41.4079 130.648 41.761C131.955 42.3716 133.385 42.676 134.828 42.651C136.236 42.6652 137.631 42.3752 138.918 41.801C139.308 41.6175 139.688 41.4139 140.058 41.191C140.201 41.7437 140.285 42.3103 140.308 42.881H144.418C144.373 41.7051 144.13 40.5454 143.698 39.451C143.551 39.0443 143.374 38.641 143.168 38.241ZM137.528 38.461C136.714 38.8541 135.822 39.0584 134.918 39.0584C134.014 39.0584 133.122 38.8541 132.308 38.461C131.76 38.1773 131.258 37.8133 130.818 37.381C130.668 37.221 130.528 37.061 130.388 36.891C129.855 36.2246 129.452 35.465 129.198 34.651C129.136 34.4854 129.089 34.3147 129.058 34.141C128.868 33.4503 128.774 32.7371 128.778 32.021C128.776 31.1585 128.911 30.3012 129.178 29.481C129.434 28.6677 129.826 27.9036 130.338 27.221C130.851 26.5501 131.502 25.9975 132.248 25.601C133.067 25.1817 133.978 24.9753 134.898 25.001C135.783 24.9847 136.659 25.1874 137.448 25.591C138.188 25.9732 138.842 26.5043 139.368 27.151C139.904 27.8437 140.313 28.6257 140.578 29.461C141.131 31.1331 141.131 32.9388 140.578 34.611L140.458 34.951C139.843 34.4403 139.172 34.0009 138.458 33.641C137.339 33.1066 136.126 32.7974 134.888 32.731V36.371C135.554 36.427 136.203 36.6139 136.798 36.921C137.35 37.2055 137.856 37.5731 138.298 38.011C138.053 38.1807 137.796 38.3311 137.528 38.461Z" fill="white"/>
<defs>
<linearGradient id="paint0_linear_108_1032" x1="7.5077" y1="40.1399" x2="39.6777" y2="21.5599" gradientUnits="userSpaceOnUse">
<stop stop-color="#FF0000"/>
<stop offset="1" stop-color="#FF7400"/>
</linearGradient>
<linearGradient id="paint1_linear_108_1032" x1="-1.85228" y1="23.1299" x2="16.4877" y2="12.5399" gradientUnits="userSpaceOnUse">
<stop stop-color="#FF0000"/>
<stop offset="1" stop-color="#FF7400"/>
</linearGradient>
</defs>
</svg>
