<svg width="38" height="43" viewBox="0 0 38 43" fill="none" xmlns="http://www.w3.org/2000/svg">
<path d="M25.2 6.45239C23.8304 6.4587 22.5009 6.91544 21.4166 7.75217C20.3323 8.5889 19.5534 9.75914 19.2 11.0824C19.0583 11.6107 18.9877 12.1555 18.99 12.7024C18.9891 12.155 18.9151 11.6102 18.77 11.0824C18.4167 9.75914 17.6377 8.5889 16.5534 7.75217C15.4691 6.91544 14.1396 6.4587 12.77 6.45239C14.2016 6.45441 15.5905 5.96491 16.7045 5.06573C17.8184 4.16654 18.59 2.91219 18.89 1.51239C18.9587 1.07933 18.9821 0.640305 18.96 0.202393C18.9577 0.642391 19.0013 1.08143 19.09 1.51239C19.3897 2.91051 20.1598 4.16359 21.2717 5.06258C22.3836 5.96158 23.7701 6.45213 25.2 6.45239Z" fill="#FFDA00"/>
<path d="M35.0399 32.8124C36.6739 35.6392 37.5328 38.8473 37.5299 42.1124H30.9999C30.9824 39.2812 29.9644 36.5473 28.1258 34.3942C26.2873 32.2411 23.7467 30.8074 20.9531 30.3466C18.1596 29.8858 15.2931 30.4276 12.8605 31.8761C10.4278 33.3247 8.58574 35.5868 7.65987 38.2624C5.72216 36.7765 4.09477 34.9248 2.86987 32.8124C3.69452 31.3925 4.70326 30.0879 5.86987 28.9324C6.43095 28.3729 7.02896 27.8517 7.65987 27.3724C10.5859 25.1171 14.1222 23.7931 17.8099 23.5724C18.1899 23.5724 18.5699 23.5724 18.9599 23.5724C19.3499 23.5724 19.7199 23.5724 20.0999 23.5724C23.7876 23.7931 27.3239 25.1171 30.2499 27.3724C30.6468 26.2262 30.8627 25.0251 30.8899 23.8124C30.8899 23.7124 30.8899 23.6124 30.8899 23.5124C30.8903 21.8733 30.5521 20.2518 29.8964 18.7496C29.2408 17.2473 28.2819 15.8967 27.0799 14.7824C25.683 13.4657 23.9827 12.5142 22.1299 12.0124C24.025 9.93147 26.5912 8.58287 29.3799 8.20239L29.6799 8.41239C32.0959 10.1291 34.0658 12.3994 35.4245 15.0334C36.7833 17.6674 37.4915 20.5886 37.4899 23.5524C37.4887 24.2205 37.452 24.8881 37.3799 25.5524C37.2485 26.8275 36.9803 28.0847 36.5799 29.3024C36.191 30.5232 35.6749 31.6996 35.0399 32.8124Z" fill="white"/>
<path d="M15.7799 12.0024C13.2647 12.7053 11.0476 14.2095 9.4648 16.2868C7.88205 18.364 7.02015 20.9009 7.00989 23.5124C7.00989 23.6124 7.00989 23.7124 7.00989 23.8124C5.41793 24.8524 3.96895 26.0963 2.69989 27.5124C2.19702 28.0685 1.72625 28.6527 1.28989 29.2624C0.890462 28.0444 0.622274 26.7873 0.489886 25.5124C0.417799 24.8481 0.381081 24.1805 0.379886 23.5124C0.378258 20.5486 1.08645 17.6274 2.44522 14.9934C3.80399 12.3594 5.77381 10.0891 8.18989 8.37239L8.50989 8.20239C11.3025 8.58147 13.8745 9.92582 15.7799 12.0024Z" fill="white"/>
</svg>
