<svg width="146" height="43" viewBox="0 0 146 43" fill="none" xmlns="http://www.w3.org/2000/svg">
<path d="M25.7279 6.25C24.3582 6.25631 23.0288 6.71305 21.9444 7.54978C20.8601 8.38651 20.0812 9.55675 19.7279 10.88C19.5861 11.4083 19.5155 11.9531 19.5179 12.5C19.5169 11.9526 19.443 11.4078 19.2979 10.88C18.9445 9.55675 18.1656 8.38651 17.0813 7.54978C15.9969 6.71305 14.6675 6.25631 13.2979 6.25C14.7294 6.25202 16.1183 5.76252 17.2323 4.86333C18.3463 3.96415 19.1178 2.70979 19.4179 1.31C19.4865 0.876936 19.51 0.437913 19.4879 0C19.4855 0.439998 19.5291 0.879038 19.6179 1.31C19.9176 2.70811 20.6876 3.96119 21.7995 4.86019C22.9114 5.75918 24.298 6.24973 25.7279 6.25Z" fill="#FFDA00"/>
<path d="M35.5677 32.61C37.2017 35.4368 38.0606 38.6449 38.0577 41.91H31.5277C31.5102 39.0788 30.4922 36.3449 28.6537 34.1918C26.8151 32.0387 24.2745 30.605 21.481 30.1442C18.6875 29.6834 15.821 30.2252 13.3883 31.6737C10.9557 33.1223 9.11357 35.3844 8.18771 38.06C6.25 36.5741 4.6226 34.7224 3.39771 32.61C4.22235 31.1901 5.23109 29.8855 6.3977 28.73C6.95878 28.1705 7.55679 27.6493 8.18771 27.17C11.1137 24.9147 14.65 23.5907 18.3377 23.37C18.7177 23.37 19.0977 23.37 19.4877 23.37C19.8777 23.37 20.2477 23.37 20.6277 23.37C24.3154 23.5907 27.8517 24.9147 30.7777 27.17C31.1746 26.0238 31.3905 24.8227 31.4177 23.61C31.4177 23.51 31.4177 23.41 31.4177 23.31C31.4181 21.6709 31.0799 20.0494 30.4243 18.5472C29.7687 17.0449 28.8098 15.6943 27.6077 14.58C26.2109 13.2633 24.5106 12.3118 22.6577 11.81C24.5528 9.72908 27.119 8.38048 29.9077 8L30.2077 8.21C32.6238 9.92666 34.5936 12.197 35.9524 14.831C37.3111 17.465 38.0193 20.3862 38.0177 23.35C38.0165 24.0181 37.9798 24.6858 37.9077 25.35C37.7764 26.6251 37.5082 27.8823 37.1077 29.1C36.7189 30.3208 36.2027 31.4972 35.5677 32.61Z" fill="url(#paint0_linear_103_426)"/>
<path d="M16.3077 11.8C13.7926 12.5029 11.5754 14.0071 9.99263 16.0844C8.40988 18.1616 7.54798 20.6985 7.53772 23.31C7.53772 23.41 7.53772 23.51 7.53772 23.61C5.94576 24.65 4.49679 25.8939 3.22772 27.31C2.72485 27.8661 2.25409 28.4503 1.81772 29.06C1.41829 27.842 1.15011 26.5849 1.01772 25.31C0.945631 24.6458 0.908913 23.9781 0.907718 23.31C0.90609 20.3462 1.61429 17.425 2.97305 14.791C4.33182 12.157 6.30164 9.88666 8.71772 8.17L9.03772 8C11.8304 8.37907 14.4023 9.72343 16.3077 11.8Z" fill="url(#paint1_linear_103_426)"/>
<path d="M65.2077 38.42C64.7087 37.1448 63.9951 35.9644 63.0977 34.93C62.7515 34.5303 62.3736 34.1591 61.9677 33.82C62.3937 33.5352 62.7833 33.1993 63.1277 32.82C63.7149 32.1896 64.1704 31.4485 64.4677 30.64C64.7793 29.8086 64.9385 28.9279 64.9377 28.04C64.9367 27.1528 64.767 26.2738 64.4377 25.45C64.1088 24.6083 63.6312 23.8327 63.0277 23.16C62.4288 22.4998 61.7092 21.9602 60.9077 21.57C60.0407 21.1691 59.0927 20.9741 58.1377 21H48.6877V42.33H52.8377V35.17H55.5477C56.0783 35.167 56.6067 35.2377 57.1177 35.38C57.4647 35.4718 57.8002 35.6026 58.1177 35.77C58.8918 36.1532 59.574 36.6989 60.1177 37.37C60.6593 38.0513 61.0758 38.8233 61.3477 39.65C61.6386 40.5136 61.7872 41.4187 61.7877 42.33H65.9677C65.9545 40.9913 65.6969 39.6662 65.2077 38.42ZM60.3877 29.81C60.1649 30.3042 59.821 30.7341 59.3877 31.06C58.9945 31.3689 58.5078 31.5347 58.0077 31.53H52.8377V24.61H57.8377C58.3368 24.6106 58.8231 24.768 59.2277 25.06C59.6766 25.3755 60.0435 25.7938 60.2977 26.28C60.5874 26.8314 60.7319 27.4474 60.7177 28.07C60.7358 28.6671 60.6232 29.261 60.3877 29.81Z" fill="black"/>
<path d="M81.3478 30.12C80.6943 28.898 79.7191 27.8778 78.5278 27.17C77.1669 26.4348 75.6445 26.0499 74.0978 26.0499C72.551 26.0499 71.0286 26.4348 69.6678 27.17C68.4461 27.8843 67.4459 28.9225 66.7778 30.17C66.1039 31.4232 65.7597 32.8272 65.7778 34.25C65.768 36.3437 66.5794 38.3578 68.0378 39.86C68.7798 40.6193 69.6722 41.2153 70.6578 41.61C71.7467 42.0509 72.9131 42.2686 74.0878 42.25C75.1733 42.2646 76.253 42.0886 77.2778 41.73C78.1976 41.4028 79.0486 40.9078 79.7878 40.27L78.6578 37.41C78.0937 38.0285 77.3863 38.499 76.5978 38.78C75.8441 39.1277 75.0275 39.3183 74.1978 39.34C73.505 39.3492 72.8198 39.195 72.1978 38.89C71.5881 38.5798 71.0683 38.1184 70.6878 37.55C70.2883 36.9315 70.0479 36.2238 69.9878 35.49H82.2378C82.2378 35.33 82.2378 35.13 82.2378 34.88C82.2378 34.63 82.2378 34.39 82.2378 34.15C82.286 32.7531 81.9798 31.3667 81.3478 30.12ZM69.9578 32.85C70.0235 32.1405 70.2529 31.4559 70.6278 30.85C70.9872 30.283 71.4866 29.8181 72.0778 29.5C72.6903 29.1649 73.3798 28.996 74.0778 29.01C74.775 29.0032 75.4627 29.1716 76.0778 29.5C76.6719 29.8178 77.1745 30.2826 77.5378 30.85C77.9127 31.4559 78.142 32.1405 78.2078 32.85H69.9578Z" fill="black"/>
<path d="M87.5776 42.21L81.7676 26.59H85.9076L89.9076 38.59L93.9076 26.59H97.7276L91.9676 42.21H87.5776Z" fill="black"/>
<path d="M98.9077 25V21H102.908V25H98.9077ZM98.9077 42.22V26.44H102.908V42.21L98.9077 42.22Z" fill="black"/>
<path d="M111.368 42.21C110.056 42.2154 108.753 41.992 107.518 41.55C106.331 41.1229 105.252 40.4401 104.358 39.55L105.798 37C106.638 37.7002 107.578 38.2699 108.588 38.69C109.422 39.0345 110.315 39.2177 111.218 39.23C111.869 39.2583 112.517 39.117 113.098 38.82C113.319 38.7047 113.504 38.5288 113.629 38.3129C113.755 38.0969 113.817 37.8497 113.808 37.6C113.815 37.4346 113.784 37.2698 113.716 37.1187C113.648 36.9676 113.546 36.8345 113.418 36.73C113.076 36.4818 112.694 36.2957 112.288 36.18C111.798 36.02 111.198 35.84 110.498 35.64C109.503 35.3341 108.527 34.9667 107.578 34.54C106.881 34.2559 106.273 33.7896 105.818 33.19C105.404 32.5738 105.197 31.8417 105.228 31.1C105.204 30.1508 105.485 29.2189 106.028 28.44C106.598 27.6669 107.369 27.0651 108.258 26.7C109.32 26.267 110.46 26.056 111.608 26.08C112.693 26.072 113.771 26.2478 114.798 26.6C115.82 26.9683 116.754 27.5475 117.538 28.3L115.908 30.83C115.214 30.2714 114.447 29.8105 113.628 29.46C112.929 29.1774 112.182 29.0314 111.428 29.03C111.026 29.0274 110.626 29.0778 110.238 29.18C109.901 29.2595 109.591 29.4249 109.338 29.66C109.213 29.7931 109.117 29.9508 109.057 30.123C108.997 30.2952 108.973 30.4781 108.988 30.66C108.98 30.8191 109.004 30.9782 109.059 31.1277C109.114 31.2773 109.198 31.4141 109.308 31.53C109.597 31.7833 109.939 31.9709 110.308 32.08C110.738 32.24 111.308 32.41 111.888 32.61C112.98 32.9071 114.053 33.2745 115.098 33.71C115.869 33.9963 116.556 34.4707 117.098 35.09C117.571 35.7338 117.804 36.5225 117.758 37.32C117.788 38.018 117.647 38.7128 117.348 39.3438C117.048 39.9748 116.598 40.5228 116.038 40.94C114.666 41.8712 113.022 42.3182 111.368 42.21Z" fill="black"/>
<path d="M118.988 25V21H122.988V25H118.988ZM118.988 42.22V26.44H122.988V42.21L118.988 42.22Z" fill="black"/>
<path d="M143.168 37.78C143.642 37.1075 144.038 36.3828 144.348 35.62C145.34 33.0906 145.34 30.2794 144.348 27.75C143.861 26.4956 143.161 25.3351 142.278 24.32C141.388 23.2946 140.3 22.461 139.078 21.87C137.782 21.2533 136.362 20.9419 134.928 20.96C133.505 20.9392 132.094 21.2329 130.798 21.82C129.575 22.39 128.475 23.1914 127.558 24.18C126.638 25.1732 125.906 26.3252 125.398 27.58C124.874 28.8485 124.606 30.2077 124.608 31.58C124.614 32.9218 124.868 34.2508 125.358 35.5C125.517 35.9171 125.708 36.3215 125.928 36.71C126.331 37.5044 126.838 38.241 127.438 38.9C127.801 39.3081 128.207 39.6767 128.648 40C129.261 40.5106 129.932 40.9469 130.648 41.3C131.955 41.9106 133.385 42.215 134.828 42.19C136.236 42.2042 137.631 41.9143 138.918 41.34C139.308 41.1565 139.688 40.9529 140.058 40.73C140.201 41.2828 140.285 41.8494 140.308 42.42H144.418C144.373 41.2442 144.13 40.0844 143.698 38.99C143.551 38.5833 143.374 38.18 143.168 37.78ZM137.528 38C136.714 38.3932 135.822 38.5974 134.918 38.5974C134.014 38.5974 133.122 38.3932 132.308 38C131.76 37.7164 131.258 37.3523 130.818 36.92C130.668 36.76 130.528 36.6 130.388 36.43C129.855 35.7637 129.452 35.0041 129.198 34.19C129.136 34.0245 129.089 33.8538 129.058 33.68C128.868 32.9894 128.774 32.2761 128.778 31.56C128.776 30.6975 128.911 29.8402 129.178 29.02C129.434 28.2067 129.826 27.4426 130.338 26.76C130.851 26.0891 131.502 25.5366 132.248 25.14C133.067 24.7207 133.978 24.5144 134.898 24.54C135.783 24.5238 136.659 24.7264 137.448 25.13C138.188 25.5122 138.842 26.0433 139.368 26.69C139.904 27.3828 140.313 28.1648 140.578 29C141.131 30.6721 141.131 32.4779 140.578 34.15L140.458 34.49C139.843 33.9794 139.172 33.5399 138.458 33.18C137.339 32.6456 136.126 32.3364 134.888 32.27V35.91C135.554 35.966 136.203 36.1529 136.798 36.46C137.35 36.7445 137.856 37.1121 138.298 37.55C138.053 37.7197 137.796 37.8702 137.528 38Z" fill="black"/>
<defs>
<linearGradient id="paint0_linear_103_426" x1="7.5077" y1="39.72" x2="39.6777" y2="21.14" gradientUnits="userSpaceOnUse">
<stop stop-color="#FF0000"/>
<stop offset="1" stop-color="#FF7400"/>
</linearGradient>
<linearGradient id="paint1_linear_103_426" x1="-1.85228" y1="22.71" x2="16.4877" y2="12.12" gradientUnits="userSpaceOnUse">
<stop stop-color="#FF0000"/>
<stop offset="1" stop-color="#FF7400"/>
</linearGradient>
</defs>
</svg>
